# xmcd CD database file
#
# Track frame offsets:
#	150
#	16350
#	37400
#	54860
#	71300
#	100175
#	125527
#	139792
#	158672
#	178295
#	197490
#
# Disc length: 2935 seconds
#
# Revision: 2
# Processed by: cddbd v1.4PL0 Copyright (c) Steve Scherf et al.
# Submitted via: CDex 1.50beta10
#
DISCID=940b750b
DTITLE=Smokey Wilson - Smoke n' Fire
DYEAR=1993
DGENRE=Blues
TTITLE0=Don't Burn Down L. A.
TTITLE1=You Took Everything From Me
TTITLE2=Smoke N' Fire
TTITLE3=Tired Of Cryin'
TTITLE4=88th Street Blues
TTITLE5=Killin' Floor
TTITLE6=Tired Of Waiting On You
TTITLE7=Nobody's Bid'ness
TTITLE8=I Didn't Know
TTITLE9=Just Messin' Around
TTITLE10=Why Don't You Let Me Be
EXTD=YEAR: 1993
EXTT0=
EXTT1=
EXTT2=
EXTT3=
EXTT4=
EXTT5=
EXTT6=
EXTT7=
EXTT8=
EXTT9=
EXTT10=
PLAYORDER=
